<svg width="16" height="13" viewBox="0 0 16 13" fill="none" xmlns="http://www.w3.org/2000/svg">
<path d="M0.170898 6.35352C0.170898 5.92188 0.469727 5.61475 0.901367 5.61475L11.8335 5.61475L13.6016 5.67285L10.8789 3.19092L9.01953 1.29834C8.88672 1.16553 8.82031 0.974609 8.82031 0.775391C8.82031 0.360352 9.13574 0.0615234 9.54248 0.0615234C9.7417 0.0615234 9.91602 0.12793 10.082 0.285645L15.6021 5.79736C15.7681 5.95508 15.8511 6.146 15.8511 6.35352C15.8511 6.56104 15.7681 6.75195 15.6021 6.90967L10.082 12.4131C9.91602 12.5708 9.7417 12.6455 9.54248 12.6455C9.13574 12.6455 8.82031 12.3467 8.82031 11.9316C8.82031 11.7324 8.88672 11.5332 9.01953 11.4087L10.8789 9.51611L13.6099 7.02588L11.8335 7.09229L0.901367 7.09229C0.469727 7.09229 0.170898 6.78516 0.170898 6.35352Z" fill="white" fill-opacity="0.87"/>
</svg>
